<svg xmlns="http://www.w3.org/2000/svg" viewBox="0 0 256 256" width="256" height="256"><defs>
  <radialGradient id="petal" gradientUnits="userSpaceOnUse" cx="112" cy="36" r="97" gradientTransform="translate(0 -6) scale(1 1.12)">
    <stop stop-color="#F1F5FF"/><stop offset=".24" stop-color="#D4E1FF"/>
    <stop offset=".58" stop-color="#8AAAF1"/><stop offset=".84" stop-color="#416ECE"/><stop offset="1" stop-color="#234DA8"/>
  </radialGradient>
  <radialGradient id="heart" cx="32%" cy="25%" r="78%"><stop stop-color="#FFF6DA"/><stop offset=".34" stop-color="#F3D593"/><stop offset=".76" stop-color="#DCAC59"/><stop offset="1" stop-color="#B98536"/></radialGradient>
  <linearGradient id="edge" x1="0" y1="0" x2="1" y2="1"><stop stop-color="#DDE7FF"/><stop offset="1" stop-color="#6189DA"/></linearGradient>
</defs><rect width="256" height="256" fill="#EEF1F6"/><g transform="translate(40.96 40.96) scale(.68)"><g transform="rotate(0 128 128)"><path d="M128 125 C111 119 91 96 88 71 C85 45 98 23 122 22 C148 20 168 43 166 70 C164 94 145 118 132 125 Z" fill="url(#petal)" stroke="url(#edge)" stroke-width=".65"/><path d="M97 69 C96 46 108 29 126 31 C139 31 151 41 157 56" fill="none" stroke="#F4F7FF" stroke-opacity=".6" stroke-width="1.25" stroke-linecap="round"/></g><g transform="rotate(72 128 128)"><path d="M128 125 C111 119 91 96 88 71 C85 45 98 23 122 22 C148 20 168 43 166 70 C164 94 145 118 132 125 Z" fill="url(#petal)" stroke="url(#edge)" stroke-width=".65"/><path d="M97 69 C96 46 108 29 126 31 C139 31 151 41 157 56" fill="none" stroke="#F4F7FF" stroke-opacity=".6" stroke-width="1.25" stroke-linecap="round"/></g><g transform="rotate(144 128 128)"><path d="M128 125 C111 119 91 96 88 71 C85 45 98 23 122 22 C148 20 168 43 166 70 C164 94 145 118 132 125 Z" fill="url(#petal)" stroke="url(#edge)" stroke-width=".65"/><path d="M97 69 C96 46 108 29 126 31 C139 31 151 41 157 56" fill="none" stroke="#F4F7FF" stroke-opacity=".6" stroke-width="1.25" stroke-linecap="round"/></g><g transform="rotate(216 128 128)"><path d="M128 125 C111 119 91 96 88 71 C85 45 98 23 122 22 C148 20 168 43 166 70 C164 94 145 118 132 125 Z" fill="url(#petal)" stroke="url(#edge)" stroke-width=".65"/><path d="M97 69 C96 46 108 29 126 31 C139 31 151 41 157 56" fill="none" stroke="#F4F7FF" stroke-opacity=".6" stroke-width="1.25" stroke-linecap="round"/></g><g transform="rotate(288 128 128)"><path d="M128 125 C111 119 91 96 88 71 C85 45 98 23 122 22 C148 20 168 43 166 70 C164 94 145 118 132 125 Z" fill="url(#petal)" stroke="url(#edge)" stroke-width=".65"/><path d="M97 69 C96 46 108 29 126 31 C139 31 151 41 157 56" fill="none" stroke="#F4F7FF" stroke-opacity=".6" stroke-width="1.25" stroke-linecap="round"/></g><circle cx="128" cy="128" r="12" fill="url(#heart)"/></g></svg>
