<svg xmlns="http://www.w3.org/2000/svg" width="96" height="96" viewBox="0 0 96 96" fill="none"><defs><linearGradient id="rm-paper" x2=".8" y2="1"><stop stop-color="#536C99"/><stop offset="1" stop-color="#334565"/></linearGradient><linearGradient id="rm-veil" x2="0" y2="1"><stop stop-color="white"/><stop offset="1" stop-color="#bbb"/></linearGradient><mask id="rm-mask"><rect width="96" height="96" fill="url(#rm-veil)"/></mask><filter id="rm-shadow" x="-35%" y="-30%" width="170%" height="175%" color-interpolation-filters="sRGB"><feDropShadow dx="0" dy="2.5" stdDeviation="2.2" flood-color="#071326" flood-opacity=".2"/></filter></defs><path d="M50 12 C88 12 94 67 66 81 C43 95 11 77 12 50 C12 28 29 12 50 12 Z" fill="#354866" mask="url(#rm-mask)"/><path d="M44 22 C72 22 84 62 61 75 C39 89 18 69 19 49 C20 34 29 22 44 22 Z" fill="#536C99"/><path d="M31 47 C33 30 57 31 61 46 C67 64 41 74 32 59 M31 35 V47 H42 M45 44 V54 L53 59" fill="none" stroke="#D0DFFA" stroke-width="3" stroke-linecap="round" stroke-linejoin="round"/><path d="M71 19 C72 10 85 11 87 19 C82 27 74 27 71 19 Z" fill="#D4B06F"/></svg>